<?xml version="1.0" standalone="no"?>
<!DOCTYPE svg PUBLIC "-//W3C//DTD SVG 20010904//EN"
 "http://www.w3.org/TR/2001/REC-SVG-20010904/DTD/svg10.dtd">
<svg version="1.0" xmlns="http://www.w3.org/2000/svg"
 width="625.000000pt" height="276.000000pt" viewBox="0 0 625.000000 276.000000"
 preserveAspectRatio="xMidYMid meet">

<g transform="translate(0.000000,276.000000) scale(0.100000,-0.100000)"
fill="#000000" stroke="none">
<path d="M0 1380 l0 -1380 3125 0 3125 0 0 1380 0 1380 -3125 0 -3125 0 0
-1380z m1144 727 c31 -14 73 -39 93 -56 35 -27 46 -30 128 -33 78 -3 100 -7
157 -36 152 -75 240 -243 210 -404 -11 -57 -10 -64 8 -83 10 -11 31 -47 47
-80 24 -52 28 -72 28 -150 0 -77 -4 -98 -27 -148 -51 -109 -124 -178 -227
-212 -41 -13 -49 -21 -70 -67 -31 -68 -107 -143 -179 -176 -51 -24 -68 -27
-167 -27 -101 0 -114 2 -162 28 -29 15 -68 41 -88 58 -31 27 -41 31 -73 25
-54 -8 -147 9 -209 39 -148 73 -240 260 -204 415 9 41 8 47 -16 78 -82 108
-93 280 -25 405 38 71 130 151 201 177 52 19 61 27 77 63 40 90 152 182 251
207 66 16 185 5 247 -23z m1478 -297 c112 -16 176 -46 244 -114 72 -73 102
-141 111 -255 17 -226 -91 -401 -287 -462 -72 -23 -281 -37 -363 -25 l-47 7 0
419 0 419 43 5 c125 17 213 18 299 6z m879 -115 c20 -60 85 -249 143 -418 58
-170 106 -310 106 -313 0 -2 -26 -4 -59 -4 l-58 0 -44 130 -44 130 -153 -2
-154 -3 -41 -127 -41 -128 -58 0 c-32 0 -58 2 -58 3 0 2 19 57 41 123 23 65
86 251 140 412 54 161 101 297 105 303 3 5 35 9 72 7 l65 -3 38 -110z m489
-265 l0 -380 180 0 180 0 0 -45 0 -45 -235 0 -235 0 0 425 0 425 55 0 55 0 0
-380z m600 0 l0 -380 180 0 180 0 0 -45 0 -45 -235 0 -235 0 0 425 0 425 55 0
55 0 0 -380z m1210 335 l0 -45 -172 -2 -173 -3 -3 -132 -3 -133 166 0 165 0 0
-45 0 -45 -162 -2 -163 -3 -3 -152 -3 -153 186 0 185 0 0 -45 0 -45 -240 0
-240 0 0 425 0 425 230 0 230 0 0 -45z m-650 -465 l0 -70 -70 0 -70 0 0 70 0
70 70 0 70 0 0 -70z"/>
<path d="M890 2023 c-61 -22 -142 -104 -163 -167 -14 -40 -17 -89 -17 -252 l0
-202 55 -31 c30 -17 59 -31 65 -31 6 0 10 78 10 220 l0 220 53 33 c28 19 103
62 165 97 l113 64 -23 18 c-61 47 -174 60 -258 31z"/>
<path d="M1260 1906 c-19 -7 -105 -54 -190 -104 l-155 -90 -3 -75 -3 -76 191
110 c105 60 195 109 199 109 5 0 79 -40 165 -90 86 -49 161 -90 167 -90 19 0
4 114 -21 163 -50 97 -131 148 -244 154 -44 2 -84 -2 -106 -11z"/>
<path d="M547 1734 c-79 -52 -136 -172 -123 -261 17 -124 67 -177 279 -298
l168 -95 56 32 c31 18 56 37 56 42 -1 6 -83 57 -184 115 l-184 106 -3 193 c-2
144 -5 192 -15 191 -6 0 -29 -11 -50 -25z"/>
<path d="M1203 1649 c-29 -17 -53 -34 -53 -37 0 -4 75 -50 166 -102 241 -138
214 -98 214 -315 0 -101 4 -186 9 -189 16 -10 100 55 130 102 75 117 58 265
-41 359 -36 34 -338 213 -360 213 -7 0 -37 -14 -65 -31z"/>
<path d="M988 1524 l-78 -46 0 -97 0 -97 73 -39 c39 -22 77 -41 84 -43 6 -2
46 16 87 40 l76 43 0 97 0 97 -69 41 c-39 22 -76 42 -83 45 -7 3 -48 -16 -90
-41z"/>
<path d="M1300 1211 c0 -171 -3 -222 -14 -233 -7 -7 -79 -51 -160 -98 -80 -47
-145 -89 -143 -95 6 -21 84 -49 145 -53 124 -8 218 43 271 149 l31 62 0 211 0
211 -59 33 c-32 17 -61 32 -65 32 -3 0 -6 -99 -6 -219z"/>
<path d="M1037 1095 c-98 -58 -185 -105 -195 -105 -10 0 -87 40 -172 89 -85
49 -158 87 -163 84 -15 -9 1 -113 24 -160 49 -101 180 -173 288 -158 51 7 82
22 280 135 l131 75 0 73 c0 39 -3 72 -7 72 -5 -1 -88 -48 -186 -105z"/>
<path d="M2418 1723 l-28 -4 0 -341 0 -340 113 4 c97 3 120 7 172 31 78 36
117 75 152 151 25 55 28 72 28 171 0 95 -3 117 -24 163 -29 64 -91 121 -158
145 -50 18 -201 30 -255 20z"/>
<path d="M3388 1690 c-3 -8 -30 -92 -61 -187 -32 -95 -57 -177 -57 -182 0 -7
44 -11 124 -11 l124 0 -53 163 c-29 89 -57 178 -62 197 -6 21 -12 29 -15 20z"/>
</g>
</svg>
